<svg xmlns="http://www.w3.org/2000/svg" viewBox="0 0 138.51 138.51">
  <rect width="138.51" height="138.51" fill="#2E2633"/>
  <g transform="translate(69.255,69.255) scale(0.78) translate(-69.26,-78)"><circle cx="69.26" cy="69.26" r="69.18" fill="none" stroke="#9B8BB8" stroke-opacity="0.18" stroke-width="0.6" stroke-linecap="round" stroke-linejoin="round"/>
<circle cx="69.26" cy="69.26" r="56.6" fill="none" stroke="#9B8BB8" stroke-opacity="0.14" stroke-width="0.6" stroke-linecap="round" stroke-linejoin="round"/>
<polygon points="69.26,31.52 91.27,56.68 69.26,94.41 47.25,56.68" fill="none" stroke="#C4B8D6" stroke-opacity="0.95" stroke-width="1.7" stroke-linecap="round" stroke-linejoin="round"/>
<line x1="69.26" y1="31.52" x2="69.26" y2="94.41" fill="none" stroke="#C4B8D6" stroke-opacity="0.5" stroke-width="1.1" stroke-linecap="round" stroke-linejoin="round"/>
<polygon points="69.26,18.95 75.55,31.52 62.97,31.52" fill="none" stroke="#C4B8D6" stroke-opacity="0.95" stroke-width="1.7" stroke-linecap="round" stroke-linejoin="round"/>
<polygon points="69.26,18.95 79.32,16.43 75.55,25.23" fill="none" stroke="#EBE0FF" stroke-opacity="0.9" stroke-width="1.5" stroke-linecap="round" stroke-linejoin="round"/>
<circle cx="72.4" cy="25.23" r="2.52" fill="none" stroke="#C4B8D6" stroke-opacity="0.7" stroke-width="1.1" stroke-linecap="round" stroke-linejoin="round"/>
<polygon points="47.25,56.68 12.66,37.81 25.23,69.26 47.25,69.26" fill="none" stroke="#C4B8D6" stroke-opacity="0.95" stroke-width="1.7" stroke-linecap="round" stroke-linejoin="round"/>
<polygon points="91.27,56.68 125.86,37.81 113.28,69.26 91.27,69.26" fill="none" stroke="#C4B8D6" stroke-opacity="0.95" stroke-width="1.7" stroke-linecap="round" stroke-linejoin="round"/>
<polygon points="69.26,94.41 47.25,125.86 58.18,103.22" fill="none" stroke="#C4B8D6" stroke-opacity="0.9" stroke-width="1.5" stroke-linecap="round" stroke-linejoin="round"/>
<polygon points="69.26,94.41 71.14,103.22 69.26,125.23 67.37,103.22" fill="none" stroke="#C4B8D6" stroke-opacity="0.9" stroke-width="1.5" stroke-linecap="round" stroke-linejoin="round"/>
<polygon points="80.33,103.22 91.27,125.86 69.26,94.41" fill="none" stroke="#C4B8D6" stroke-opacity="0.9" stroke-width="1.5" stroke-linecap="round" stroke-linejoin="round"/>
<line x1="69.26" y1="56.68" x2="6.37" y2="25.23" fill="none" stroke="#9B8BB8" stroke-opacity="0.35" stroke-width="0.8" stroke-linecap="round" stroke-linejoin="round"/>
<line x1="69.26" y1="56.68" x2="132.15" y2="25.23" fill="none" stroke="#9B8BB8" stroke-opacity="0.35" stroke-width="0.8" stroke-linecap="round" stroke-linejoin="round"/>
<circle cx="72.4" cy="25.23" r="1.6" fill="#EBE0FF"/></g>
</svg>