<?xml version="1.0" encoding="UTF-8"?>
<svg id="Layer_1" data-name="Layer 1" xmlns="http://www.w3.org/2000/svg" viewBox="8.92 56.34 229.09 48.57">
  <defs>
    <style>
      .cls-1 {
        fill: #2e2633;
      }

      .cls-2 {
        isolation: isolate;
      }
    </style>
  </defs>
  <g class="cls-2">
    <path class="cls-1" d="M62.18,89.65c.1,0,.41-.26.54-.06-2.05,1.43-4.7.95-6.94.3,1.34,1.17,3.08,1.83,4.79,2.27.03.17-.21.16-.33.2-1.29.41-2.65.1-3.89-.35-.63-.23-1.23-.61-1.88-.81-.07.07,1.12,1.4,1.25,1.56.27.3,1.13,1.01,1.26,1.26.12.23-.2.18-.3.18-1.36.02-2.84-.96-3.95-1.68-.16.51.78,1.53-.12,1.56-.79.03-1.83-.6-2.51-.97-.1-.03-.14.56-.29.66-.5.35-2.14-.38-2.58-.78-.19.78-.88.72-1.52.45-.29-.12-.9-.69-1.11-.69-.28,0-.64.55-1.44.49-.61-.05-.74-.56-1.08-.61s-.54.2-.84.24c-1.04.16-1.05-.63-1.33-.7-.25-.07-.87.32-1.39.21-.61-.13-.49-.73-.58-.8-.22-.2-2.14.44-1.91-.96-.48-.02-.97.07-1.42-.14-.1-.4.14-.78.21-1.14.03-.16.01-.22-.16-.16-.53.16-1.21.87-1.84.97-.05.3.1.57.11.88.05,1.17.16,5.05-.92,5.67-.58.34-1.13-.03-1.54-.46-.61.76-1.46,1.95-2.52,1.2l-.41-.72c-.63,1.29-3.01,1.74-2.63-.36-1.57,1.14-3.17,1.02-2.27-1.32-2.22.76-2.89-.51-1.55-2.27-2.62.22-2.11-1.16-.72-2.51-1.23-.06-1.87-.99-.64-1.78.3-.19.69-.3,1.03-.41,2.27-.75,4.79-1.01,7.07-1.79l1.76-2.37-1.71.98c-.47.17-.98.48-1.4.04-.16-.16-.22-.52-.24-.54-.06-.05-.98.37-1.55.05-.33-.18-.36-.76-.61-.95-.32-.24-.88-.09-1.25-.42-.4-.35-.23-.95-.44-1.17-.16-.16-.73-.25-.97-.4-.65-.41-.29-1.02-.49-1.31-.09-.14-.57-.18-.78-.3-.89-.51-.28-1.41-.42-1.61-.29-.43-3.29-.85-1.74-2.27-.83-.13-3.38-1.6-1.68-2.21-.92-.58-1.92-1.07-2.63-1.91.39-.39.96-.25,1.44-.36.11-.02.27-.04.23-.18-1.62-.69-3.39-1.59-4.43-3.05l5.98,1.38-2.79-1.7c-1.05-.77-2.06-1.65-2.69-2.81-.11-.2-.37-.54-.2-.75,2.45,1.58,4.97,3.06,7.72,4.07-.84-.75-1.84-1.3-2.69-2.03-1.43-1.25-2.71-2.83-2.93-4.78.22-.05.28.12.42.24,1.69,1.47,3.18,3.43,5.21,4.6l1.78,1.03c-1.77-1.8-3.88-3.74-3.71-6.52.01-.18-.09-.34.18-.3,1.58,2.75,3.62,5.21,6.1,7.18.48.22-.23-.72-.28-.8-.67-1.2-1.05-2.03-.98-3.45,0-.19.08-.31.24-.18,1.16,2.88,3.24,5.3,5.69,7.18.12-.26.04-.61.06-.9,0-.14-.08-.33.12-.3.2.39.64.93.96,1.26.67.69,1.63,1.33,2.27,2.03,1.3,1.41,2.09,4.09,3.79,5.18,1.59,1.02,4.03-1.13,5.72-1.3.63-.06,1.59-.01,2.18.21.42.16.62.53.99.69.57.24,1.37.19,2.01.38.88.27,1.99.93,2.06,1.95-.14-.06-.25-.11-.41-.12-.76-.06-2.69.1-3.42.3-.59.16-.63.55-.95.84-.5.46-1.06.85-1.5,1.37-.1.12-.23.15-.18.36,1.08.35,2.2.62,3.32.81.84.14,1.73.15,2.57.3,1.19.22,2.45.81,3.65,1.13.41.11,1.02.08,1.22.39-.28.03-.72.06-.84.36,2.74,1.06,5.75,1.58,8.49.24.03.25-.2.39-.37.53-.87.72-2.32,1-3.4,1.03-.27,0-.55-.19-.77-.07,1.76.65,4.06.78,5.86.24.49-.15.94-.42,1.43-.54.14.13-.38.56-.49.65-1.51,1.21-3.78,1.2-5.61,1.03l.96.42c.65.07,1.74.54,2.33.54.68,0,1.5.06,2.15,0Z"/>
  </g>
  <g>
    <g class="cls-2">
      <path class="cls-1" d="M81.9,76.79c-1.35,0-2.58-.25-3.69-.73-1.11-.49-2.07-1.16-2.88-2.03-.81-.86-1.44-1.85-1.89-2.96-.45-1.11-.67-2.3-.67-3.55,0-1.68.38-3.22,1.13-4.6s1.82-2.49,3.19-3.32c1.37-.83,2.96-1.24,4.77-1.24s3.3.39,4.62,1.18c1.32.79,2.29,1.85,2.94,3.18l-2.95.93c-.46-.85-1.1-1.51-1.92-1.97s-1.74-.7-2.75-.7c-1.1,0-2.1.28-3,.85-.9.57-1.62,1.34-2.15,2.33-.53.99-.79,2.11-.79,3.38s.27,2.37.81,3.38c.54,1.01,1.26,1.81,2.16,2.4.9.59,1.91.88,3,.88.71,0,1.39-.13,2.04-.38.65-.25,1.22-.59,1.72-1.01.49-.42.83-.89,1.01-1.39l2.95.89c-.37.87-.92,1.64-1.67,2.32-.74.67-1.63,1.21-2.64,1.6-1.02.39-2.14.58-3.35.58Z"/>
      <path class="cls-1" d="M102.47,61.16c-1.51.02-2.85.41-4,1.15-1.16.74-1.97,1.77-2.46,3.07v11.06h-3.02v-17.82h2.82v4.05c.62-1.24,1.44-2.24,2.46-3.01,1.02-.77,2.09-1.2,3.21-1.29h.58c.16,0,.3.01.41.03v2.75Z"/>
      <path class="cls-1" d="M112.88,76.79c-1.35,0-2.58-.25-3.67-.73-1.1-.49-2.05-1.16-2.85-2.01-.8-.85-1.42-1.83-1.85-2.95-.44-1.11-.65-2.28-.65-3.51s.22-2.43.65-3.55,1.05-2.1,1.85-2.95c.8-.85,1.76-1.52,2.87-2.01,1.11-.49,2.33-.73,3.66-.73s2.58.24,3.67.73c1.1.49,2.05,1.16,2.87,2.01.81.85,1.44,1.83,1.87,2.95.43,1.11.65,2.3.65,3.55s-.22,2.4-.65,3.51c-.44,1.11-1.05,2.1-1.85,2.95-.8.85-1.76,1.52-2.87,2.01-1.11.49-2.34.73-3.69.73ZM106.94,67.62c0,1.22.27,2.33.81,3.33.54,1,1.25,1.78,2.15,2.36.89.58,1.89.87,2.99.87s2.1-.29,3-.88,1.63-1.39,2.16-2.4c.54-1.01.81-2.12.81-3.35s-.27-2.33-.81-3.33c-.54-1-1.26-1.79-2.16-2.38s-1.91-.88-3-.88-2.09.3-2.99.9-1.61,1.4-2.15,2.4c-.54,1-.81,2.12-.81,3.36Z"/>
      <path class="cls-1" d="M141.46,76.45l-4.33-13.21-4.36,13.21h-3.19l-6.29-17.82h3.16l4.84,14.14,4.39-14.14h2.89l4.39,14.14,4.84-14.14h3.12l-6.25,17.82h-3.23Z"/>
      <path class="cls-1" d="M168,76.79c-1.49,0-2.88-.25-4.19-.74-1.3-.49-2.43-1.23-3.37-2.22l1.17-2.13c1.03.96,2.06,1.65,3.09,2.06s2.08.62,3.16.62c1.24,0,2.24-.23,3.02-.69s1.17-1.15,1.17-2.05c0-.66-.2-1.15-.6-1.46s-.97-.59-1.7-.8-1.6-.46-2.61-.73c-1.24-.36-2.28-.75-3.13-1.16-.85-.41-1.49-.92-1.92-1.53-.44-.61-.65-1.39-.65-2.32,0-1.14.3-2.1.89-2.88.6-.78,1.41-1.38,2.46-1.79,1.04-.41,2.23-.61,3.55-.61s2.53.21,3.61.62,2,1.02,2.78,1.82l-1.37,2.1c-.71-.73-1.49-1.28-2.33-1.63-.85-.35-1.8-.53-2.85-.53-.62,0-1.23.07-1.82.22-.6.15-1.09.41-1.48.78-.39.37-.58.9-.58,1.58,0,.57.15,1.02.46,1.34.31.33.77.61,1.37.83.61.23,1.34.48,2.22.75,1.35.39,2.52.77,3.52,1.16s1.77.89,2.32,1.5c.55.61.82,1.46.82,2.55,0,1.68-.64,2.99-1.92,3.93-1.28.94-2.98,1.41-5.08,1.41Z"/>
      <path class="cls-1" d="M186.44,76.79c-1.35,0-2.58-.25-3.67-.73-1.1-.49-2.05-1.16-2.85-2.01-.8-.85-1.42-1.83-1.85-2.95-.43-1.11-.65-2.28-.65-3.51s.22-2.43.65-3.55,1.05-2.1,1.85-2.95,1.76-1.52,2.87-2.01c1.11-.49,2.33-.73,3.66-.73s2.58.24,3.67.73c1.1.49,2.05,1.16,2.87,2.01s1.44,1.83,1.87,2.95c.43,1.11.65,2.3.65,3.55s-.22,2.4-.65,3.51c-.44,1.11-1.05,2.1-1.85,2.95-.8.85-1.76,1.52-2.87,2.01-1.11.49-2.34.73-3.69.73ZM180.5,67.62c0,1.22.27,2.33.81,3.33.54,1,1.25,1.78,2.15,2.36.89.58,1.89.87,2.99.87s2.1-.29,3-.88,1.63-1.39,2.16-2.4c.54-1.01.81-2.12.81-3.35s-.27-2.33-.81-3.33c-.54-1-1.26-1.79-2.16-2.38s-1.91-.88-3-.88-2.09.3-2.99.9c-.89.6-1.61,1.4-2.15,2.4-.54,1-.81,2.12-.81,3.36Z"/>
      <path class="cls-1" d="M214.74,76.45h-3.02v-9.94c0-1.88-.29-3.26-.88-4.14s-1.47-1.31-2.66-1.31c-.82,0-1.64.2-2.46.61s-1.53.96-2.16,1.65c-.63.69-1.08,1.49-1.36,2.39v10.74h-3.02v-17.82h2.75v3.85c.48-.84,1.1-1.57,1.85-2.18.76-.61,1.61-1.09,2.58-1.43.96-.34,1.97-.51,3.02-.51s1.89.19,2.59.56c.7.38,1.25.9,1.65,1.57.4.67.69,1.46.86,2.37.17.91.26,1.9.26,2.96v10.63Z"/>
      <path class="cls-1" d="M226.59,76.79c-1.21,0-2.33-.25-3.35-.74-1.02-.49-1.89-1.17-2.63-2.03-.73-.86-1.3-1.84-1.7-2.94-.4-1.1-.6-2.24-.6-3.43,0-1.26.2-2.45.6-3.57.4-1.12.97-2.11,1.72-2.97.74-.86,1.62-1.53,2.63-2.03,1.01-.49,2.13-.74,3.37-.74,1.49,0,2.79.36,3.9,1.08s2.04,1.64,2.8,2.76v-3.57h2.68v17.65c0,1.69-.41,3.11-1.22,4.28-.81,1.16-1.91,2.05-3.3,2.65-1.39.6-2.92.91-4.62.91-2.01,0-3.66-.35-4.95-1.06s-2.35-1.67-3.19-2.88l1.75-1.54c.71,1.05,1.63,1.84,2.76,2.37,1.13.53,2.34.79,3.62.79,1.1,0,2.11-.2,3.04-.58.93-.39,1.67-.99,2.23-1.79.56-.8.84-1.81.84-3.02v-3.16c-.66,1.1-1.57,1.97-2.73,2.61s-2.38.96-3.66.96ZM227.52,74.32c.64,0,1.26-.11,1.85-.34.6-.23,1.14-.53,1.65-.91s.93-.81,1.27-1.29c.34-.48.57-.97.69-1.48v-5.15c-.32-.82-.78-1.55-1.37-2.18s-1.27-1.12-2.03-1.48c-.75-.35-1.53-.53-2.33-.53-.92,0-1.73.19-2.46.58-.72.39-1.33.91-1.84,1.56-.5.65-.89,1.38-1.17,2.18-.27.8-.41,1.61-.41,2.44,0,.89.16,1.73.48,2.52.32.79.75,1.49,1.3,2.11s1.2,1.1,1.96,1.44c.75.34,1.56.52,2.4.52Z"/>
    </g>
    <g class="cls-2">
      <path class="cls-1" d="M74.52,101.63c.13.01.27.02.4.04.13.02.24.02.31.02.16,0,.31-.06.43-.17.12-.11.26-.33.41-.65.15-.32.34-.8.58-1.42l-3.42-8.03h1.44l2.72,6.66,2.46-6.66h1.34l-3.93,10.14c-.09.24-.23.46-.41.67-.18.21-.41.38-.69.5-.28.12-.61.18-1,.18-.09,0-.19,0-.29-.02-.1-.01-.22-.03-.36-.06v-1.21Z"/>
      <path class="cls-1" d="M91.94,99.59c-.61,0-1.16-.11-1.65-.33s-.92-.52-1.28-.9c-.36-.38-.64-.83-.83-1.33-.2-.5-.29-1.03-.29-1.58s.1-1.09.29-1.6c.2-.5.47-.94.83-1.33.36-.38.79-.69,1.29-.91.5-.22,1.05-.33,1.65-.33s1.16.11,1.65.33.92.52,1.29.91c.37.38.65.83.84,1.33.2.5.29,1.03.29,1.6s-.1,1.08-.29,1.58-.47.94-.83,1.33c-.36.38-.79.68-1.29.9-.5.22-1.05.33-1.66.33ZM89.26,95.47c0,.55.12,1.05.36,1.5.24.45.56.8.97,1.06s.85.39,1.34.39.94-.13,1.35-.4c.41-.26.73-.62.97-1.08.24-.45.36-.96.36-1.51s-.12-1.05-.36-1.5c-.24-.45-.57-.8-.97-1.07-.41-.26-.86-.4-1.35-.4s-.94.13-1.34.41-.72.63-.97,1.08c-.24.45-.36.95-.36,1.51Z"/>
      <path class="cls-1" d="M107.02,99.59c-.55,0-1.05-.11-1.51-.33-.46-.22-.85-.53-1.18-.91-.33-.39-.58-.83-.76-1.32-.18-.49-.27-1.01-.27-1.54,0-.57.09-1.1.27-1.61.18-.5.44-.95.77-1.34s.73-.69,1.18-.91c.45-.22.96-.33,1.51-.33.67,0,1.25.16,1.75.49.5.32.92.74,1.26,1.24v-1.61h1.21v7.94c0,.76-.18,1.4-.55,1.92s-.86.92-1.48,1.19c-.62.27-1.32.41-2.08.41-.91,0-1.65-.16-2.23-.48s-1.06-.75-1.44-1.3l.79-.7c.32.47.73.83,1.24,1.07.51.24,1.05.36,1.63.36.49,0,.95-.09,1.37-.26.42-.17.75-.44,1-.8.25-.36.38-.81.38-1.36v-1.42c-.3.5-.71.89-1.23,1.17-.52.29-1.07.43-1.65.43ZM107.44,98.48c.29,0,.57-.05.83-.15.27-.1.52-.24.74-.41s.42-.36.57-.58c.15-.22.26-.44.31-.67v-2.32c-.14-.37-.35-.7-.62-.98-.27-.28-.57-.5-.91-.67-.34-.16-.69-.24-1.05-.24-.41,0-.78.09-1.1.26s-.6.41-.83.7c-.23.29-.4.62-.53.98-.12.36-.19.73-.19,1.1,0,.4.07.78.22,1.14.14.36.34.67.59.95.25.28.54.49.88.65.34.16.7.23,1.08.23Z"/>
      <path class="cls-1" d="M118.95,97.12c0-.51.15-.96.44-1.33.29-.37.7-.66,1.21-.87s1.11-.31,1.79-.31c.36,0,.74.03,1.14.09s.76.14,1.07.25v-.58c0-.61-.19-1.09-.56-1.44-.37-.35-.9-.53-1.58-.53-.44,0-.87.08-1.27.24-.41.16-.84.39-1.29.69l-.49-.96c.53-.36,1.05-.63,1.58-.81.53-.18,1.07-.27,1.64-.27,1.03,0,1.84.28,2.44.85s.9,1.36.9,2.37v3.39c0,.16.03.28.1.36.07.08.18.12.33.13v1.05c-.13.02-.25.04-.35.05-.1.01-.18.02-.24.02-.32,0-.56-.09-.72-.26-.16-.17-.25-.36-.27-.56l-.03-.51c-.35.45-.81.8-1.38,1.05-.57.25-1.13.37-1.68.37s-1.02-.11-1.44-.33-.75-.52-.99-.89c-.24-.37-.35-.79-.35-1.25ZM124.21,97.69c.12-.14.22-.29.29-.44.07-.15.11-.27.11-.37v-1c-.32-.12-.65-.22-1-.28-.35-.07-.7-.1-1.04-.1-.69,0-1.25.13-1.68.41-.43.27-.64.64-.64,1.11,0,.25.07.5.21.74.14.24.35.44.62.59s.61.23,1.01.23c.42,0,.82-.08,1.21-.25.38-.17.69-.38.91-.63Z"/>
      <path class="cls-1" d="M148.5,99.08c-.11.05-.27.12-.46.2-.2.08-.42.15-.68.22-.26.06-.53.09-.82.09-.33,0-.63-.06-.91-.18s-.5-.3-.67-.56c-.16-.25-.25-.57-.25-.95v-5.42h-1.1v-1.07h1.1v-2.69h1.36v2.69h1.81v1.07h-1.81v5.01c.02.29.12.5.29.64.17.14.38.21.62.21.27,0,.51-.05.74-.14s.38-.16.45-.2l.32,1.08Z"/>
      <path class="cls-1" d="M162.9,99.44h-1.36v-4.47c0-.82-.15-1.43-.44-1.84-.29-.41-.71-.61-1.26-.61-.35,0-.7.09-1.06.28s-.67.43-.93.74c-.27.31-.46.67-.59,1.08v4.83h-1.36v-11.28h1.36v4.99c.32-.57.75-1.03,1.31-1.36.55-.33,1.15-.5,1.79-.5.48,0,.89.08,1.21.25.32.17.58.41.78.71.2.31.34.66.42,1.07.09.4.13.85.13,1.33v4.79Z"/>
      <path class="cls-1" d="M174.73,99.59c-.61,0-1.16-.11-1.66-.33s-.93-.52-1.3-.9c-.37-.38-.65-.83-.85-1.33-.2-.5-.3-1.03-.3-1.6,0-.76.17-1.45.53-2.07.35-.62.84-1.12,1.46-1.5.62-.38,1.34-.57,2.14-.57s1.52.19,2.12.58,1.07.88,1.41,1.5.5,1.29.5,2c0,.1,0,.2,0,.3,0,.1-.01.17-.02.22h-6.69c.04.52.19.98.44,1.38.25.4.58.72.98.95.4.23.83.34,1.3.34.49,0,.96-.12,1.4-.37.44-.25.74-.57.9-.97l1.17.32c-.17.39-.43.74-.78,1.05-.34.31-.75.55-1.22.73s-.98.26-1.52.26ZM172.01,94.96h5.5c-.04-.52-.19-.98-.45-1.38-.26-.4-.59-.71-.99-.93-.4-.22-.84-.34-1.33-.34s-.91.11-1.31.34c-.4.22-.73.53-.98.93-.25.4-.4.86-.44,1.38Z"/>
      <path class="cls-1" d="M190.69,92.56c-.68,0-1.28.18-1.8.52-.52.33-.89.8-1.11,1.38v4.98h-1.36v-8.02h1.27v1.82c.28-.56.65-1.01,1.11-1.35.46-.34.94-.54,1.44-.58h.26c.07,0,.13,0,.19.02v1.24Z"/>
      <path class="cls-1" d="M197.54,97.12c0-.51.15-.96.44-1.33.29-.37.7-.66,1.21-.87s1.11-.31,1.79-.31c.36,0,.74.03,1.14.09.4.06.76.14,1.07.25v-.58c0-.61-.19-1.09-.56-1.44s-.9-.53-1.58-.53c-.44,0-.87.08-1.28.24-.41.16-.84.39-1.29.69l-.49-.96c.53-.36,1.05-.63,1.58-.81.53-.18,1.07-.27,1.64-.27,1.03,0,1.84.28,2.44.85.6.57.9,1.36.9,2.37v3.39c0,.16.03.28.1.36.07.08.18.12.33.13v1.05c-.13.02-.25.04-.35.05-.1.01-.18.02-.24.02-.32,0-.56-.09-.72-.26-.16-.17-.25-.36-.27-.56l-.03-.51c-.35.45-.81.8-1.38,1.05-.57.25-1.13.37-1.68.37s-1.01-.11-1.44-.33c-.42-.22-.75-.52-.99-.89-.24-.37-.36-.79-.36-1.25ZM202.79,97.69c.12-.14.22-.29.29-.44.07-.15.11-.27.11-.37v-1c-.32-.12-.65-.22-1-.28-.35-.07-.7-.1-1.04-.1-.69,0-1.25.13-1.68.41s-.64.64-.64,1.11c0,.25.07.5.21.74.14.24.34.44.62.59.27.15.61.23,1.01.23.42,0,.82-.08,1.21-.25.38-.17.68-.38.91-.63Z"/>
      <path class="cls-1" d="M217.21,99.59c-.66,0-1.25-.16-1.76-.49-.51-.33-.92-.74-1.22-1.24v4.87h-1.36v-11.31h1.21v1.52c.32-.49.74-.89,1.25-1.19.51-.3,1.08-.45,1.68-.45.56,0,1.07.11,1.53.34.46.22.87.53,1.21.92s.61.83.8,1.33.29,1.01.29,1.56c0,.76-.15,1.45-.46,2.09-.3.63-.73,1.14-1.28,1.51s-1.17.56-1.88.56ZM216.79,98.42c.4,0,.77-.08,1.09-.25s.6-.39.83-.67c.23-.28.41-.6.53-.96.12-.36.19-.72.19-1.1,0-.4-.07-.77-.21-1.13-.14-.36-.33-.67-.59-.95-.25-.28-.55-.49-.88-.65s-.7-.24-1.09-.24c-.25,0-.5.05-.77.14-.26.09-.51.22-.75.39-.24.17-.44.36-.6.57-.17.21-.27.44-.33.69v2.29c.15.35.36.66.62.95s.56.51.9.68.69.25,1.05.25Z"/>
      <path class="cls-1" d="M228.72,101.63c.13.01.27.02.4.04s.24.02.31.02c.17,0,.31-.06.43-.17.12-.11.26-.33.41-.65.15-.32.34-.8.58-1.42l-3.42-8.03h1.44l2.72,6.66,2.46-6.66h1.34l-3.93,10.14c-.09.24-.23.46-.41.67-.18.21-.41.38-.69.5-.28.12-.61.18-1,.18-.09,0-.19,0-.29-.02-.1-.01-.22-.03-.36-.06v-1.21Z"/>
    </g>
  </g>
</svg>