<?xml version="1.0" encoding="UTF-8"?>
<svg id="Layer_1" data-name="Layer 1" xmlns="http://www.w3.org/2000/svg" viewBox="6.92 52.48 233.72 45.09">
  <defs>
    <style>
      .cls-1 {
        fill: #2e2633;
      }

      .cls-2 {
        isolation: isolate;
      }
    </style>
  </defs>
  <g class="cls-2">
    <path class="cls-1" d="M62.18,85.41c.1,0,.41-.26.54-.06-2.05,1.43-4.7.95-6.94.3,1.34,1.17,3.08,1.83,4.79,2.27.03.17-.21.16-.33.2-1.29.41-2.65.1-3.89-.35-.63-.23-1.23-.61-1.88-.81-.07.07,1.12,1.4,1.25,1.56.27.3,1.13,1.01,1.26,1.26.12.23-.2.18-.3.18-1.36.02-2.84-.96-3.95-1.68-.16.51.78,1.53-.12,1.56-.79.03-1.83-.6-2.51-.97-.1-.03-.14.56-.29.66-.5.35-2.14-.38-2.58-.78-.19.78-.88.72-1.52.45-.29-.12-.9-.69-1.11-.69-.28,0-.64.55-1.44.49-.61-.05-.74-.56-1.08-.61s-.54.2-.84.24c-1.04.16-1.05-.63-1.33-.7-.25-.07-.87.32-1.39.21-.61-.13-.49-.73-.58-.8-.22-.2-2.14.44-1.91-.96-.48-.02-.97.07-1.42-.14-.1-.4.14-.78.21-1.14.03-.16.01-.22-.16-.16-.53.16-1.21.87-1.84.97-.05.3.1.57.11.88.05,1.17.16,5.05-.92,5.67-.58.34-1.13-.03-1.54-.46-.61.76-1.46,1.95-2.52,1.2l-.41-.72c-.63,1.29-3.01,1.74-2.63-.36-1.57,1.14-3.17,1.02-2.27-1.32-2.22.76-2.89-.51-1.55-2.27-2.62.22-2.11-1.16-.72-2.51-1.23-.06-1.87-.99-.64-1.78.3-.19.69-.3,1.03-.41,2.27-.75,4.79-1.01,7.07-1.79l1.76-2.37-1.71.98c-.47.17-.98.48-1.4.04-.16-.16-.22-.52-.24-.54-.06-.05-.98.37-1.55.05-.33-.18-.36-.76-.61-.95-.32-.24-.88-.09-1.25-.42-.4-.35-.23-.95-.44-1.17-.16-.16-.73-.25-.97-.4-.65-.41-.29-1.02-.49-1.31-.09-.14-.57-.18-.78-.3-.89-.51-.28-1.41-.42-1.61-.29-.43-3.29-.85-1.74-2.27-.83-.13-3.38-1.6-1.68-2.21-.92-.58-1.92-1.07-2.63-1.91.39-.39.96-.25,1.44-.36.11-.02.27-.04.23-.18-1.62-.69-3.39-1.59-4.43-3.05l5.98,1.38-2.79-1.7c-1.05-.77-2.06-1.65-2.69-2.81-.11-.2-.37-.54-.2-.75,2.45,1.58,4.97,3.06,7.72,4.07-.84-.75-1.84-1.3-2.69-2.03-1.43-1.25-2.71-2.83-2.93-4.78.22-.05.28.12.42.24,1.69,1.47,3.18,3.43,5.21,4.6l1.78,1.03c-1.77-1.8-3.88-3.74-3.71-6.52.01-.18-.09-.34.18-.3,1.58,2.75,3.62,5.21,6.1,7.18.48.22-.23-.72-.28-.8-.67-1.2-1.05-2.03-.98-3.45,0-.19.08-.31.24-.18,1.16,2.88,3.24,5.3,5.69,7.18.12-.26.04-.61.06-.9,0-.14-.08-.33.12-.3.2.39.64.93.96,1.26.67.69,1.63,1.33,2.27,2.03,1.3,1.41,2.09,4.09,3.79,5.18,1.59,1.02,4.03-1.13,5.72-1.3.63-.06,1.59-.01,2.18.21.42.16.62.53.99.69.57.24,1.37.19,2.01.38.88.27,1.99.93,2.06,1.95-.14-.06-.25-.11-.41-.12-.76-.06-2.69.1-3.42.3-.59.16-.63.55-.95.84-.5.46-1.06.85-1.5,1.37-.1.12-.23.15-.18.36,1.08.35,2.2.62,3.32.81.84.14,1.73.15,2.57.3,1.19.22,2.45.81,3.65,1.13.41.11,1.02.08,1.22.39-.28.03-.72.06-.84.36,2.74,1.06,5.75,1.58,8.49.24.03.25-.2.39-.37.53-.87.72-2.32,1-3.4,1.03-.27,0-.55-.19-.77-.07,1.76.65,4.06.78,5.86.24.49-.15.94-.42,1.43-.54.14.13-.38.56-.49.65-1.51,1.21-3.78,1.2-5.61,1.03l.96.42c.65.07,1.74.54,2.33.54.68,0,1.5.06,2.15,0Z"/>
  </g>
  <g class="cls-2">
    <path class="cls-1" d="M82.18,86.22c-1.35,0-2.59-.25-3.7-.73-1.11-.49-2.08-1.17-2.89-2.03-.81-.87-1.45-1.86-1.89-2.97-.45-1.12-.67-2.3-.67-3.55,0-1.69.38-3.22,1.14-4.61.76-1.39,1.82-2.5,3.2-3.33,1.38-.83,2.97-1.25,4.78-1.25s3.31.4,4.63,1.19,2.3,1.85,2.94,3.18l-2.96.93c-.46-.85-1.1-1.51-1.93-1.98-.83-.47-1.74-.71-2.75-.71-1.1,0-2.11.28-3.01.85-.91.57-1.62,1.35-2.15,2.33s-.79,2.12-.79,3.39.27,2.38.81,3.39c.54,1.01,1.26,1.81,2.17,2.4.91.59,1.91.89,3.01.89.71,0,1.39-.13,2.05-.38.65-.25,1.23-.59,1.72-1.02s.83-.89,1.02-1.39l2.96.9c-.37.87-.92,1.65-1.67,2.32-.75.68-1.63,1.21-2.65,1.6-1.02.39-2.14.58-3.36.58Z"/>
    <path class="cls-1" d="M102.8,70.56c-1.51.02-2.85.41-4.01,1.15-1.16.75-1.98,1.77-2.46,3.08v11.08h-3.03v-17.87h2.82v4.06c.62-1.24,1.44-2.24,2.46-3.01,1.02-.77,2.09-1.2,3.22-1.29h.58c.16,0,.3.01.41.03v2.75Z"/>
    <path class="cls-1" d="M113.23,86.22c-1.35,0-2.58-.25-3.68-.73s-2.05-1.16-2.86-2.02c-.8-.85-1.42-1.84-1.86-2.96-.44-1.12-.65-2.29-.65-3.52s.22-2.44.65-3.55,1.06-2.1,1.86-2.96c.8-.85,1.76-1.53,2.87-2.02,1.11-.49,2.33-.73,3.67-.73s2.58.25,3.68.73c1.1.49,2.06,1.16,2.87,2.02.81.85,1.44,1.84,1.88,2.96.44,1.12.65,2.3.65,3.55s-.22,2.4-.65,3.52c-.44,1.12-1.06,2.1-1.86,2.96-.8.85-1.76,1.53-2.87,2.02-1.11.49-2.35.73-3.7.73ZM107.28,77.03c0,1.23.27,2.34.81,3.34.54,1,1.26,1.79,2.15,2.37s1.89.87,2.99.87,2.11-.3,3.01-.89c.91-.59,1.63-1.39,2.17-2.4s.81-2.13.81-3.36-.27-2.34-.81-3.34-1.26-1.79-2.17-2.38c-.91-.59-1.91-.89-3.01-.89s-2.1.3-2.99.9c-.9.6-1.61,1.4-2.15,2.4-.54,1-.81,2.12-.81,3.37Z"/>
    <path class="cls-1" d="M141.87,85.88l-4.34-13.25-4.37,13.25h-3.2l-6.3-17.87h3.17l4.85,14.17,4.41-14.17h2.89l4.41,14.17,4.85-14.17h3.13l-6.26,17.87h-3.24Z"/>
    <path class="cls-1" d="M168.48,86.22c-1.49,0-2.89-.25-4.2-.74-1.31-.49-2.43-1.23-3.37-2.22l1.17-2.13c1.03.96,2.07,1.65,3.1,2.07,1.03.41,2.09.62,3.17.62,1.24,0,2.25-.23,3.03-.7.78-.46,1.17-1.15,1.17-2.05,0-.66-.2-1.15-.6-1.47-.4-.32-.97-.59-1.7-.8-.73-.22-1.61-.46-2.62-.74-1.24-.36-2.28-.75-3.13-1.16-.85-.41-1.49-.92-1.93-1.54-.44-.62-.65-1.39-.65-2.32,0-1.14.3-2.1.89-2.89s1.42-1.38,2.46-1.79c1.04-.41,2.23-.62,3.56-.62s2.54.21,3.61.62c1.08.41,2.01,1.02,2.79,1.82l-1.38,2.1c-.71-.73-1.49-1.28-2.34-1.64-.85-.36-1.8-.53-2.86-.53-.62,0-1.23.07-1.83.22-.6.15-1.09.41-1.48.79-.39.38-.59.9-.59,1.59,0,.57.16,1.02.46,1.35.31.33.77.61,1.38.84.61.23,1.35.48,2.22.75,1.35.39,2.53.77,3.53,1.16s1.77.89,2.32,1.5.83,1.47.83,2.56c0,1.68-.64,3-1.93,3.94s-2.98,1.42-5.09,1.42Z"/>
    <path class="cls-1" d="M186.97,86.22c-1.35,0-2.58-.25-3.68-.73s-2.05-1.16-2.86-2.02c-.8-.85-1.42-1.84-1.86-2.96-.44-1.12-.65-2.29-.65-3.52s.22-2.44.65-3.55c.44-1.12,1.05-2.1,1.86-2.96.8-.85,1.76-1.53,2.88-2.02,1.11-.49,2.33-.73,3.67-.73s2.58.25,3.68.73c1.1.49,2.06,1.16,2.88,2.02.81.85,1.44,1.84,1.88,2.96.44,1.12.65,2.3.65,3.55s-.22,2.4-.65,3.52c-.44,1.12-1.06,2.1-1.86,2.96-.8.85-1.76,1.53-2.87,2.02s-2.35.73-3.7.73ZM181.01,77.03c0,1.23.27,2.34.81,3.34.54,1,1.26,1.79,2.15,2.37.89.58,1.89.87,3,.87s2.1-.3,3.01-.89c.91-.59,1.63-1.39,2.17-2.4.54-1.01.81-2.13.81-3.36s-.27-2.34-.81-3.34c-.54-1-1.26-1.79-2.17-2.38-.91-.59-1.91-.89-3.01-.89s-2.1.3-3,.9c-.9.6-1.61,1.4-2.15,2.4-.54,1-.81,2.12-.81,3.37Z"/>
    <path class="cls-1" d="M215.33,85.88h-3.03v-9.96c0-1.89-.29-3.27-.88-4.15-.58-.88-1.47-1.31-2.67-1.31-.83,0-1.65.21-2.46.61-.82.41-1.54.96-2.17,1.65-.63.69-1.08,1.49-1.36,2.4v10.76h-3.03v-17.87h2.75v3.86c.48-.84,1.1-1.57,1.86-2.19.76-.61,1.62-1.09,2.58-1.43s1.97-.51,3.03-.51,1.9.19,2.6.56,1.25.9,1.65,1.57c.4.67.69,1.46.86,2.38.17.91.26,1.9.26,2.97v10.66Z"/>
    <path class="cls-1" d="M227.21,86.22c-1.22,0-2.34-.25-3.36-.74-1.02-.49-1.9-1.17-2.63-2.03s-1.3-1.84-1.7-2.94-.6-2.25-.6-3.44c0-1.26.2-2.46.6-3.58.4-1.12.98-2.12,1.72-2.98.75-.86,1.62-1.54,2.63-2.03,1.01-.49,2.13-.74,3.37-.74,1.49,0,2.79.36,3.91,1.08,1.11.72,2.05,1.65,2.81,2.77v-3.58h2.68v17.69c0,1.69-.41,3.12-1.22,4.29-.82,1.17-1.92,2.05-3.3,2.66-1.39.61-2.93.91-4.63.91-2.02,0-3.67-.36-4.96-1.07-1.29-.71-2.35-1.68-3.2-2.89l1.76-1.55c.71,1.05,1.64,1.85,2.77,2.38,1.14.53,2.35.79,3.63.79,1.1,0,2.12-.2,3.05-.59.93-.39,1.67-.99,2.24-1.79s.84-1.81.84-3.03v-3.17c-.67,1.1-1.58,1.97-2.74,2.62-1.16.64-2.38.96-3.67.96ZM228.14,83.74c.64,0,1.26-.12,1.86-.34s1.15-.53,1.65-.91c.5-.38.93-.81,1.27-1.29.34-.48.57-.98.69-1.48v-5.16c-.32-.83-.78-1.55-1.38-2.19s-1.27-1.12-2.03-1.48c-.76-.36-1.54-.53-2.34-.53-.92,0-1.74.2-2.46.58-.72.39-1.34.91-1.84,1.57s-.89,1.38-1.17,2.19c-.28.8-.41,1.62-.41,2.44,0,.89.16,1.74.48,2.53.32.79.76,1.5,1.31,2.12.55.62,1.2,1.1,1.96,1.45.76.34,1.56.52,2.41.52Z"/>
  </g>
</svg>